<?xml version="1.0" encoding="UTF-8" standalone="no"?>
<!DOCTYPE svg PUBLIC "-//W3C//DTD SVG 1.1//EN" "http://www.w3.org/Graphics/SVG/1.1/DTD/svg11.dtd">
<svg width="100%" height="100%" viewBox="0 0 1254 1254" version="1.1" xmlns="http://www.w3.org/2000/svg" xmlns:xlink="http://www.w3.org/1999/xlink" xml:space="preserve" xmlns:serif="http://www.serif.com/" style="fill-rule:evenodd;clip-rule:evenodd;stroke-linejoin:round;stroke-miterlimit:2;">
    <path d="M169.47,164.04C169.48,161.14 171.34,158.51 173.66,157.12C174.673,156.513 176.793,156.21 180.02,156.21C511.26,156.21 810.087,156.213 1076.5,156.22C1079.847,156.22 1082.223,157.413 1083.63,159.8C1084.503,161.287 1084.94,164.003 1084.94,167.95C1084.94,447.277 1084.943,738.163 1084.95,1040.61C1084.95,1044.823 1084.617,1047.523 1083.95,1048.71C1081.89,1052.41 1078.87,1052.97 1074.41,1052.97C924.063,1052.963 721.51,1052.953 466.75,1052.94C432.197,1052.933 408.613,1052.993 396,1053.12C391.12,1053.17 389.82,1051.62 386.19,1048.02C276.03,938.64 216.913,879.933 208.84,871.9C189.84,852.993 177.523,840.863 171.89,835.51C170.27,833.963 169.46,832.21 169.46,830.25C169.407,443.443 169.41,221.373 169.47,164.04ZM1052.38,187.7L202.43,187.7C202.116,187.7 201.855,187.956 201.85,188.27C201.757,191.137 201.71,195.88 201.71,202.5C201.697,599.773 201.687,801.107 201.68,806.5C201.673,811.053 201.753,814.59 201.92,817.11C202.027,818.61 202.797,820.073 204.23,821.5C226.443,843.473 254.33,871.157 287.89,904.55C294.41,911.05 299.7,916.73 305.61,922.12C309.29,925.473 313.55,929.753 318.39,934.96C321.063,937.847 325.06,941.783 330.38,946.77C334.14,950.303 338.797,954.99 344.35,960.83C347.66,964.3 351.2,967.32 355.23,971.37C362.63,978.81 370.307,986.407 378.26,994.16C387.77,1003.42 394.97,1010.88 404.97,1020.29C405.232,1020.539 405.556,1020.718 405.91,1020.81C406.83,1021.05 407.86,1021.167 409,1021.16C414.26,1021.14 628.663,1021.117 1052.21,1021.09C1052.495,1021.09 1052.73,1020.855 1052.73,1020.57L1052.73,188.05C1052.73,187.858 1052.572,187.7 1052.38,187.7Z" style="fill:rgb(216,159,34);fill-rule:nonzero;"/>
    <g transform="matrix(1,0,0,1,0.137452,-0.025)">
        <path d="M370.85,202.56L370.85,349.32C370.85,351.467 369.107,353.21 366.96,353.21L216.96,353.21C214.813,353.21 213.07,351.467 213.07,349.32L213.07,202.56C213.07,200.413 214.813,198.67 216.96,198.67L366.96,198.67C369.107,198.67 370.85,200.413 370.85,202.56Z" style="fill:rgb(216,159,34);"/>
    </g>
    <g transform="matrix(1,0,0,1,0,-0.025)">
        <path d="M538.23,202.31L538.23,349.57C538.23,351.579 536.599,353.21 534.59,353.21L384.77,353.21C382.761,353.21 381.13,351.579 381.13,349.57L381.13,202.31C381.13,200.301 382.761,198.67 384.77,198.67L534.59,198.67C536.599,198.67 538.23,200.301 538.23,202.31Z" style="fill:rgb(216,159,34);"/>
    </g>
    <g transform="matrix(1,0,0,1,0,0.045)">
        <path d="M705.79,202.46L705.79,349.28C705.79,351.377 704.087,353.08 701.99,353.08L552.07,353.08C549.973,353.08 548.27,351.377 548.27,349.28L548.27,202.46C548.27,200.363 549.973,198.66 552.07,198.66L701.99,198.66C704.087,198.66 705.79,200.363 705.79,202.46Z" style="fill:rgb(216,159,34);"/>
    </g>
    <g transform="matrix(1,0,0,1,0,0.025)">
        <path d="M873.09,202.34L873.09,349.44C873.09,351.449 871.459,353.08 869.45,353.08L719.37,353.08C717.361,353.08 715.73,351.449 715.73,349.44L715.73,202.34C715.73,200.331 717.361,198.7 719.37,198.7L869.45,198.7C871.459,198.7 873.09,200.331 873.09,202.34Z" style="fill:rgb(216,159,34);"/>
    </g>
    <g transform="matrix(1,0,0,1,0,0.035)">
        <path d="M1041.07,202.57L1041.07,349.19C1041.07,351.37 1039.3,353.14 1037.12,353.14L887.36,353.14C885.18,353.14 883.41,351.37 883.41,349.19L883.41,202.57C883.41,200.39 885.18,198.62 887.36,198.62L1037.12,198.62C1039.3,198.62 1041.07,200.39 1041.07,202.57Z" style="fill:rgb(24,39,60);"/>
    </g>
    <g transform="matrix(1,0,0,1,0.127452,-0.02)">
        <path d="M370.86,366.87L370.86,514.15C370.86,516.126 369.256,517.73 367.28,517.73L216.66,517.73C214.684,517.73 213.08,516.126 213.08,514.15L213.08,366.87C213.08,364.894 214.684,363.29 216.66,363.29L367.28,363.29C369.256,363.29 370.86,364.894 370.86,366.87Z" style="fill:rgb(216,159,34);"/>
    </g>
    <g transform="matrix(1,0,0,1,0,-0.01)">
        <path d="M538.23,366.75L538.23,514.25C538.23,516.171 536.671,517.73 534.75,517.73L384.63,517.73C382.709,517.73 381.15,516.171 381.15,514.25L381.15,366.75C381.15,364.829 382.709,363.27 384.63,363.27L534.75,363.27C536.671,363.27 538.23,364.829 538.23,366.75Z" style="fill:rgb(216,159,34);"/>
    </g>
    <g transform="matrix(1,0,0,1,0,0.01)">
        <path d="M873.12,366.7L873.12,514.26C873.12,516.159 871.579,517.7 869.68,517.7L719.2,517.7C717.301,517.7 715.76,516.159 715.76,514.26L715.76,366.7C715.76,364.801 717.301,363.26 719.2,363.26L869.68,363.26C871.579,363.26 873.12,364.801 873.12,366.7Z" style="fill:rgb(216,159,34);"/>
    </g>
    <path d="M705.82,366.89L705.82,514.09C705.82,516.088 704.198,517.71 702.2,517.71L551.88,517.71C549.882,517.71 548.26,516.088 548.26,514.09L548.26,366.89C548.26,364.892 549.882,363.27 551.88,363.27L702.2,363.27C704.198,363.27 705.82,364.892 705.82,366.89Z" style="fill:rgb(216,159,34);"/>
    <g transform="matrix(0.999998,0.001745,-0.001745,0.999998,962.24,440.49)">
        <path d="M78.84,-73.28L78.84,73.28C78.84,75.444 77.084,77.2 74.92,77.2L-74.92,77.2C-77.084,77.2 -78.84,75.444 -78.84,73.28L-78.84,-73.28C-78.84,-75.444 -77.084,-77.2 -74.92,-77.2L74.92,-77.2C77.084,-77.2 78.84,-75.444 78.84,-73.28Z" style="fill:rgb(24,39,60);"/>
    </g>
    <path d="M538.43,678.81C538.193,680.238 536.967,681.308 535.52,681.35C530.4,681.503 524.893,681.583 519,681.59C482.607,681.663 442.94,681.647 400,681.54C397.1,681.533 392.363,681.653 385.79,681.9C382.55,682.03 381.11,681.47 381.12,678C381.26,628.533 381.24,581.95 381.06,538.25C381.05,535.97 380.93,529.73 383.17,528.36C383.42,528.202 383.704,528.106 384,528.08C387.733,527.747 390.067,527.58 391,527.58C429.467,527.673 474.05,527.687 524.75,527.62C526.543,527.613 529.077,527.473 532.35,527.2C535.33,526.95 537.83,527.83 537.97,530.79C538.117,534.07 538.19,538.89 538.19,545.25C538.183,617.223 538.163,658.383 538.13,668.73C538.12,672.16 538.93,675.8 538.43,678.81Z" style="fill:rgb(24,39,60);fill-rule:nonzero;"/>
    <g transform="matrix(0.999998,0.001745,-0.001745,0.999998,291.96,604.538281)">
        <path d="M78.9,-73.09L78.9,73.09C78.9,75.226 77.166,76.96 75.03,76.96L-75.03,76.96C-77.166,76.96 -78.9,75.226 -78.9,73.09L-78.9,-73.09C-78.9,-75.226 -77.166,-76.96 -75.03,-76.96L75.03,-76.96C77.166,-76.96 78.9,-75.226 78.9,-73.09Z" style="fill:rgb(24,39,60);"/>
    </g>
    <g transform="matrix(1,0,0,1,0.066452,-0.467454)">
        <path d="M252.125,855.491L367.058,855.692C369.194,855.696 370.925,857.433 370.921,859.569L370.721,974.088L252.125,855.491Z" style="fill:rgb(24,39,60);"/>
    </g>
    <g transform="matrix(1,0,0,1,0,-0.011719)">
        <path d="M705.81,531.32L705.81,677.78C705.81,679.789 704.179,681.42 702.17,681.42L551.89,681.42C549.881,681.42 548.25,679.789 548.25,677.78L548.25,531.32C548.25,529.311 549.881,527.68 551.89,527.68L702.17,527.68C704.179,527.68 705.81,529.311 705.81,531.32Z" style="fill:rgb(216,159,34);"/>
    </g>
    <g transform="matrix(1,0,0,1,0,-0.031719)">
        <path d="M873.12,531.26L873.12,677.88C873.12,679.85 871.52,681.45 869.55,681.45L719.31,681.45C717.34,681.45 715.74,679.85 715.74,677.88L715.74,531.26C715.74,529.29 717.34,527.69 719.31,527.69L869.55,527.69C871.52,527.69 873.12,529.29 873.12,531.26Z" style="fill:rgb(216,159,34);"/>
    </g>
    <g transform="matrix(1,0,0,1,0,-0.161719)">
        <path d="M1041.04,531.53L1041.04,677.87C1041.04,679.951 1039.351,681.64 1037.27,681.64L887.21,681.64C885.129,681.64 883.44,679.951 883.44,677.87L883.44,531.53C883.44,529.449 885.129,527.76 887.21,527.76L1037.27,527.76C1039.351,527.76 1041.04,529.449 1041.04,531.53Z" style="fill:rgb(24,39,60);"/>
    </g>
    <g transform="matrix(1,0,0,1,0,0.273044)">
        <path d="M873.11,695.02L873.11,841.92C873.11,843.841 871.551,845.4 869.63,845.4L719.21,845.4C717.289,845.4 715.73,843.841 715.73,841.92L715.73,695.02C715.73,693.099 717.289,691.54 719.21,691.54L869.63,691.54C871.551,691.54 873.11,693.099 873.11,695.02Z" style="fill:rgb(216,159,34);"/>
    </g>
    <path d="M383.27,692.34C384.097,691.873 385.343,691.637 387.01,691.63C440.777,691.543 476.077,691.54 492.91,691.62C505.39,691.68 523.12,691.05 535.26,691.73C537.233,691.843 538.227,693.01 538.24,695.23C538.253,698.15 538.253,704.147 538.24,713.22C538.113,776 538.097,809.947 538.19,815.06C538.31,821.367 538.41,825.33 538.49,826.95C538.75,832.257 538.433,837.643 537.54,843.11C537.32,844.47 536.393,845.203 534.76,845.31C524.6,845.95 517.34,845.56 507.42,845.57C485.027,845.617 446.553,845.647 392,845.66C388.793,845.66 386.297,845.783 384.51,846.03C382.18,846.35 380.93,844.92 380.87,842.51C380.79,839.62 381.15,837.04 381.15,834C381.21,792.12 381.213,753.273 381.16,717.46C381.15,709.71 380.77,702.07 381.7,694.66C381.826,693.679 382.409,692.817 383.27,692.34Z" style="fill:rgb(24,39,60);fill-rule:nonzero;"/>
    <g transform="matrix(1,0,0,1,0,-0.467454)">
        <path d="M381.168,984.554C381.21,947.805 381.208,913.467 381.16,881.54C381.15,873.79 380.77,866.15 381.7,858.74C381.826,857.759 382.409,856.896 383.27,856.42C384.097,855.953 385.343,855.716 387.01,855.71C440.777,855.623 476.077,855.62 492.91,855.7C505.39,855.76 523.12,855.13 535.26,855.81C537.233,855.923 538.227,857.09 538.24,859.31C538.253,862.23 538.253,868.226 538.24,877.3C538.113,940.08 538.097,974.026 538.19,979.14C538.31,985.446 538.41,989.41 538.49,991.03C538.75,996.336 538.433,1001.723 537.54,1007.19C537.32,1008.55 536.393,1009.283 534.76,1009.39C524.6,1010.03 517.34,1009.64 507.42,1009.65C487.044,1009.692 453.353,1009.721 406.349,1009.736L381.168,984.554Z" style="fill:rgb(24,39,60);"/>
    </g>
    <path d="M383.27,692.34C384.097,691.873 385.343,691.637 387.01,691.63C440.777,691.543 476.077,691.54 492.91,691.62C505.39,691.68 523.12,691.05 535.26,691.73C537.233,691.843 538.227,693.01 538.24,695.23C538.253,698.15 538.253,704.147 538.24,713.22C538.113,776 538.097,809.947 538.19,815.06C538.31,821.367 538.41,825.33 538.49,826.95C538.75,832.257 538.433,837.643 537.54,843.11C537.32,844.47 536.393,845.203 534.76,845.31C524.6,845.95 517.34,845.56 507.42,845.57C485.027,845.617 446.553,845.647 392,845.66C388.793,845.66 386.297,845.783 384.51,846.03C382.18,846.35 380.93,844.92 380.87,842.51C380.79,839.62 381.15,837.04 381.15,834C381.21,792.12 381.213,753.273 381.16,717.46C381.15,709.71 380.77,702.07 381.7,694.66C381.826,693.679 382.409,692.817 383.27,692.34Z" style="fill:rgb(24,39,60);fill-rule:nonzero;"/>
    <g transform="matrix(1,0,0,1,1.159025,0.197948)">
        <path d="M212.424,815.438C212.46,780.584 212.456,747.925 212.411,717.46C212.401,709.71 212.021,702.07 212.951,694.66C213.076,693.679 213.66,692.817 214.521,692.34C215.347,691.873 216.594,691.637 218.261,691.63C272.027,691.543 307.327,691.54 324.161,691.62C336.641,691.68 354.371,691.05 366.511,691.73C368.484,691.843 369.477,693.01 369.491,695.23C369.504,698.15 369.504,704.147 369.491,713.22C369.364,776 369.347,809.947 369.441,815.06C369.561,821.367 369.661,825.33 369.741,826.95C370.001,832.257 369.684,837.643 368.791,843.11C368.571,844.47 367.644,845.203 366.011,845.31C355.851,845.95 348.591,845.56 338.671,845.57C319.03,845.611 287.02,845.639 242.64,845.654L212.424,815.438Z" style="fill:rgb(24,39,60);"/>
    </g>
    <g transform="matrix(1,0,0,1,0,0.273044)">
        <path d="M705.82,695.01L705.82,841.93C705.82,843.845 704.265,845.4 702.35,845.4L551.75,845.4C549.835,845.4 548.28,843.845 548.28,841.93L548.28,695.01C548.28,693.095 549.835,691.54 551.75,691.54L702.35,691.54C704.265,691.54 705.82,693.095 705.82,695.01Z" style="fill:rgb(216,159,34);"/>
    </g>
    <g transform="matrix(1,0,0,1,0,0.183044)">
        <path d="M1041.13,695.51L1041.13,841.61C1041.13,843.785 1039.365,845.55 1037.19,845.55L887.37,845.55C885.195,845.55 883.43,843.785 883.43,841.61L883.43,695.51C883.43,693.335 885.195,691.57 887.37,691.57L1037.19,691.57C1039.365,691.57 1041.13,693.335 1041.13,695.51Z" style="fill:rgb(82,49,25);"/>
    </g>
    <path d="M722.02,1009.81C718.83,1009.81 715.81,1010.01 715.8,1005.97C715.71,960.17 715.81,914.48 715.67,868.5C715.67,865.96 715.5,858.99 717.13,857.02C717.523,856.547 718.337,856.263 719.57,856.17C727.19,855.61 733.383,855.373 738.15,855.46C745.563,855.593 749.3,855.66 749.36,855.66C752.553,855.747 788.267,855.68 856.5,855.46C860.967,855.447 864.72,855.313 867.76,855.06C874.85,854.46 873.06,861.47 873.07,865.75C873.11,907.483 873.11,945 873.07,978.3C873.06,985.32 873.38,992.76 873.34,1000C873.32,1003.34 873.66,1009 869.63,1009.38C867.477,1009.587 861.683,1009.717 852.25,1009.77C842.717,1009.83 799.307,1009.843 722.02,1009.81Z" style="fill:rgb(82,49,25);fill-rule:nonzero;"/>
    <g transform="matrix(0.999998,-0.001745,0.001745,0.999998,626.97,932.274997)">
        <path d="M78.84,-73.48L78.84,73.48C78.84,75.489 77.209,77.12 75.2,77.12L-75.2,77.12C-77.209,77.12 -78.84,75.489 -78.84,73.48L-78.84,-73.48C-78.84,-75.489 -77.209,-77.12 -75.2,-77.12L75.2,-77.12C77.209,-77.12 78.84,-75.489 78.84,-73.48Z" style="fill:rgb(82,49,25);"/>
    </g>
    <g transform="matrix(1,0,0,1,0,-0.118122)">
        <path d="M963.5,855.54L963.74,855.54C997.267,855.513 1015.603,855.527 1018.75,855.58C1024.183,855.66 1029.957,855.593 1036.07,855.38C1042.54,855.15 1041.32,858.78 1041.25,863.75C1041.057,876.297 1040.99,913.53 1041.05,975.45C1041.06,985.44 1041.51,996.43 1040.8,1006.48C1040.733,1007.433 1040.353,1008.183 1039.66,1008.73C1039.133,1009.15 1038.317,1009.377 1037.21,1009.41C1010.157,1010.27 984.733,1010.383 960.94,1009.75L960.7,1009.75C927.173,1009.777 908.837,1009.763 905.69,1009.71C900.257,1009.63 894.483,1009.697 888.37,1009.91C881.9,1010.14 883.12,1006.51 883.19,1001.54C883.383,988.993 883.45,951.76 883.39,889.84C883.38,879.85 882.93,868.86 883.64,858.81C883.707,857.857 884.087,857.107 884.78,856.56C885.307,856.14 886.123,855.913 887.23,855.88C914.277,855.027 939.7,854.913 963.5,855.54Z" style="fill:rgb(82,49,25);fill-rule:nonzero;"/>
    </g>
</svg>
